#!OML:ASF E:\motion texture\Top Level 1\Subject 1\Session 1\male.ASF
:FULLY-SPECIFIED
:DEGREES
395
root -0.0434673 17.6573 4.25798 827.965 -78.8847 -825.519
lowerback 3.7428 -0.711131 5.91216
upperback -1.43455 -0.626866 5.34703
thorax -3.59283 -0.453114 2.2742
lowerneck -23.1879 -3.01189 -4.39776
upperneck 14.9893 -3.86632 5.7731
head 8.67425 -1.44912 2.14557
rclavicle -4.83916e-015 -3.73715e-014
rhumerus -27.3943 12.7261 -89.5647
rradius 55.7324
rwrist -11.0892
rhand -13.5523 -15.3714
rfingers 7.12502
rthumb 12.5607 -44.9738
lclavicle -4.83916e-015 -3.73715e-014
lhumerus -38.8525 -9.89931 90.9954
lradius 39.687
lwrist -6.33919
lhand -6.54312 14.409
lfingers 7.12502
lthumb 19.3102 43.4703
rfemur -16.8984 3.46378 37.7792
rtibia 31.0931
rfoot 709.018 -5.0863
rtoes 18.3901
lfemur -41.5825 5.67138 -4.28857
ltibia 77.8283
lfoot 912.127 3.50433
ltoes -3.46126
396
root -0.159685 17.6948 4.24664 830.3 -78.5144 -827.908
lowerback 4.03085 -0.454093 6.16097
upperback -1.37878 -0.248092 5.31994
thorax -3.69783 -0.272579 2.08486
lowerneck -23.1615 -3.12612 -4.43179
upperneck 14.9466 -4.04158 5.91803
head 8.6694 -1.51892 2.17557
rclavicle -1.33061e-014 6.99722e-014
rhumerus -25.8898 13.8516 -89.5029
rradius 57.8146
rwrist -10.9377
rhand -13.1495 -14.9802
rfingers 7.12502
rthumb 12.949 -44.5584
lclavicle -1.33061e-014 6.99722e-014
lhumerus -40.5073 -9.12965 90.3745
lradius 39.2451
lwrist -6.03896
lhand -6.53754 14.456
lfingers 7.12502
lthumb 19.3155 43.5167
rfemur -15.9057 3.80148 38.1221
rtibia 30.3103
rfoot 709.04 -4.89848
rtoes 18.5501
lfemur -45.3613 6.52541 -4.40611
ltibia 74.312
lfoot 911.685 4.48997
ltoes -2.79673
397
root -0.277892 17.7324 4.23805 832.832 -78.1189 -830.502
lowerback 4.3066 -0.177595 6.43653
upperback -1.3186 0.157766 5.26359
thorax -3.78712 -0.0792481 1.84529
lowerneck -23.1563 -3.24545 -4.47255
upperneck 14.9271 -4.22403 6.07223
head 8.67729 -1.591 2.20881
rclavicle -1.31819e-014 7.43455e-014
rhumerus -24.399 14.8049 -89.3653
rradius 59.8678
rwrist -10.7603
rhand -12.8422 -14.5634
rfingers 7.12502
rthumb 13.2453 -44.1226
lclavicle -1.31819e-014 7.43455e-014
lhumerus -42.1961 -8.48928 89.7057
lradius 38.9761
lwrist -5.82581
lhand -6.53841 14.4433
lfingers 7.12502
lthumb 19.3147 43.5041
rfemur -14.9071 4.12978 38.4317
rtibia 29.5507
rfoot 709.079 -4.64863
rtoes 18.6852
lfemur -49.0695 7.38417 -4.58996
ltibia 71.0999
lfoot 911.304 5.11347
ltoes -2.18898
398
root -0.398252 17.7691 4.23177 835.405 -77.703 -833.156
lowerback 4.57633 0.108235 6.73171
upperback -1.24917 0.577059 5.18079
thorax -3.85786 0.120445 1.56362
lowerneck -23.1606 -3.36756 -4.52502
upperneck 14.9138 -4.40944 6.2401
head 8.69014 -1.66349 2.24815
rclavicle 5.03795e-015 -1.86858e-014
rhumerus -22.9279 15.5917 -89.1721
rradius 61.8874
rwrist -10.5632
rhand -12.584 -14.2227
rfingers 7.12502
rthumb 13.4942 -43.7655
lclavicle 5.03795e-015 -1.86858e-014
lhumerus -43.9104 -7.98018 89.0084
lradius 38.8672
lwrist -5.65527
lhand -6.53492 14.387
lfingers 7.12502
lthumb 19.3181 43.4475
rfemur -13.8949 4.4304 38.703
rtibia 28.8187
rfoot 709.124 -4.35102
rtoes 18.8292
lfemur -52.6817 8.21 -4.82919
ltibia 68.1889
lfoot 910.953 5.58034
ltoes -1.71353
399
root -0.520731 17.8044 4.22769 837.94 -77.2787 -835.791
lowerback 4.84348 0.396855 7.03542
upperback -1.16867 1.00061 5.07462
thorax -3.90926 0.322405 1.25021
lowerneck -23.1567 -3.48825 -4.57989
upperneck 14.8769 -4.58972 6.40153
head 8.69354 -1.73482 2.28623
rclavicle -2.43511e-015 -3.1408e-014
rhumerus -21.4814 16.2345 -88.9332
rradius 63.8735
rwrist -10.362
rhand -12.4205 -13.9493
rfingers 7.12502
rthumb 13.6517 -43.4816
lclavicle -2.43511e-015 -3.1408e-014
lhumerus -45.6371 -7.58889 88.2983
lradius 38.9012
lwrist -5.4458
lhand -6.51022 14.2997
lfingers 7.12502
lthumb 19.3418 43.3578
rfemur -12.8753 4.69454 38.9227
rtibia 28.1203
rfoot 709.174 -4.01763
rtoes 18.9876
lfemur -56.1956 8.97768 -5.12535
ltibia 65.563
lfoot 910.6 5.94988
ltoes -1.32781
400
root -0.645231 17.8381 4.22511 840.331 -76.85 -838.304
lowerback 5.11082 0.6804 7.34123
upperback -1.08191 1.41813 4.95378
thorax -3.94781 0.521574 0.918915
lowerneck -23.1398 -3.60735 -4.64496
upperneck 14.8228 -4.76344 6.56087
head 8.68905 -1.80437 2.32613
rclavicle 3.36692e-015 -5.84427e-014
rhumerus -20.0656 16.7569 -88.6569
rradius 65.8067
rwrist -10.1901
rhand -12.3317 -13.6966
rfingers 7.12502
rthumb 13.7373 -43.2231
lclavicle 3.36692e-015 -5.84427e-014
lhumerus -47.363 -7.29477 87.5878
lradius 39.0443
lwrist -5.1594
lhand -6.45416 14.2099
lfingers 7.12502
lthumb 19.3957 43.2626
rfemur -11.8545 4.92135 39.0996
rtibia 27.4592
rfoot 709.224 -3.67346
rtoes 19.1538
lfemur -59.6074 9.66764 -5.46108
ltibia 63.208
lfoot 910.228 6.24657
ltoes -1.05432
401
root -0.771791 17.8699 4.22371 842.497 -76.4258 -840.61
lowerback 5.37801 0.951648 7.64481
upperback -0.992668 1.81994 4.82624
thorax -3.97787 0.713168 0.581528
lowerneck -23.1106 -3.72227 -4.71952
upperneck 14.7627 -4.92677 6.713
head 8.68021 -1.87073 2.3666
rclavicle -2.55749e-014 -5.36719e-014
rhumerus -18.6818 17.1724 -88.3452
rradius 67.6852
rwrist -10.0865
rhand -12.3116 -13.4646
rfingers 7.12502
rthumb 13.7567 -42.9898
lclavicle -2.55749e-014 -5.36719e-014
lhumerus -49.0772 -7.07563 86.885
lradius 39.2663
lwrist -4.77137
lhand -6.38532 14.1039
lfingers 7.12502
lthumb 19.4619 43.1499
rfemur -10.8378 5.09841 39.2399
rtibia 26.8349
rfoot 709.272 -3.33778
rtoes 19.333
lfemur -62.9115 10.258 -5.82038
ltibia 61.1115
lfoot 909.854 6.48035
ltoes -0.807488
402
root -0.900538 17.9003 4.22333 844.395 -76.0168 -842.662
lowerback 5.64739 1.20498 7.94328
upperback -0.912089 2.19959 4.69803
thorax -4.01339 0.893526 0.24661
lowerneck -23.042 -3.83056 -4.79335
upperneck 14.6848 -5.07649 6.84131
head 8.65739 -1.93426 2.40088
rclavicle 2.2736e-015 -6.16232e-015
rhumerus -17.3351 17.4953 -88.0067
rradius 69.4813
rwrist -10.0517
rhand -12.3046 -13.2569
rfingers 7.12502
rthumb 13.7635 -42.7816
lclavicle 2.2736e-015 -6.16232e-015
lhumerus -50.7752 -6.90774 86.1926
lradius 39.5349
lwrist -4.282
lhand -6.31514 13.9917
lfingers 7.12502
lthumb 19.5294 43.0309
rfemur -9.8297 5.21578 39.347
rtibia 26.2416
rfoot 709.319 -3.01977
rtoes 19.5152
lfemur -66.105 10.7342 -6.19312
ltibia 59.2639
lfoot 909.487 6.66623
ltoes -0.558169
403
root -1.03174 17.9294 4.22369 846.022 -75.6307 -844.446
lowerback 5.90606 1.43718 8.22941
upperback -0.842887 2.55107 4.5771
thorax -4.05151 1.05983 -0.0726872
lowerneck -22.9483 -3.93029 -4.87486
upperneck 14.6139 -5.20995 6.95386
head 8.63168 -1.99277 2.43359
rclavicle -3.05383e-014 -8.15017e-014
rhumerus -16.0227 17.7533 -87.6391
rradius 71.1846
rwrist -10.0782
rhand -12.3025 -13.0445
rfingers 7.12502
rthumb 13.7655 -42.5692
lclavicle -3.05383e-014 -8.15017e-014
lhumerus -52.4463 -6.76502 85.5103
lradius 39.8248
lwrist -3.74497
lhand -6.21803 13.8886
lfingers 7.12502
lthumb 19.6228 42.9182
rfemur -8.83518 5.27335 39.4263
rtibia 25.6731
rfoot 709.366 -2.73065
rtoes 19.6895
lfemur -69.1871 11.0931 -6.56841
ltibia 57.6578
lfoot 909.147 6.80974
ltoes -0.270155
404
root -1.16529 17.9574 4.22452 847.391 -75.2719 -845.971
lowerback 6.14917 1.64695 8.49825
upperback -0.788744 2.87201 4.46869
thorax -4.09506 1.21084 -0.367666
lowerneck -22.8372 -4.01826 -4.95895
upperneck 14.5606 -5.32373 7.04507
head 8.60737 -2.0446 2.46251
rclavicle 1.74744e-014 1.03368e-014
rhumerus -14.7366 17.9635 -87.2442
rradius 72.7731
rwrist -10.1425
rhand -12.323 -12.8169
rfingers 7.12502
rthumb 13.7457 -42.3428
lclavicle 1.74744e-014 1.03368e-014
lhumerus -54.0836 -6.62859 84.8341
lradius 40.1168
lwrist -3.21944
lhand -6.13585 13.7609
lfingers 7.12502
lthumb 19.7018 42.7825
rfemur -7.85983 5.27689 39.4837
rtibia 25.1254
rfoot 709.415 -2.47042
rtoes 19.848
lfemur -72.1571 11.3359 -6.93181
ltibia 56.2827
lfoot 908.86 6.91431
ltoes -0.00153648
405
root -1.30122 17.9846 4.22557 848.535 -74.9456 -847.266
lowerback 6.37505 1.83408 8.74067
upperback -0.750442 3.16132 4.3758
thorax -4.14577 1.34613 -0.629891
lowerneck -22.7126 -4.09318 -5.03981
upperneck 14.5322 -5.4172 7.10935
head 8.58709 -2.08951 2.4849
rclavicle -3.57812e-014 -2.18663e-014
rhumerus -13.4761 18.1423 -86.8246
rradius 74.2375
rwrist -10.213
rhand -12.3525 -12.5968
rfingers 7.12502
rthumb 13.7173 -42.1247
lclavicle -3.57812e-014 -2.18663e-014
lhumerus -55.6819 -6.48953 84.1636
lradius 40.3946
lwrist -2.76305
lhand -6.05974 13.6516
lfingers 7.12502
lthumb 19.7749 42.6657
rfemur -6.90025 5.23534 39.5189
rtibia 24.5938
rfoot 709.47 -2.23546
rtoes 19.955
lfemur -74.9975 11.4705 -7.27726
ltibia 55.1431
lfoot 908.636 6.98122
ltoes 0.268926
406
root -1.43938 18.0113 4.2266 849.468 -74.6627 -848.349
lowerback 6.5851 1.99617 8.94541
upperback -0.723305 3.41462 4.30141
thorax -4.20188 1.464 -0.849506
lowerneck -22.5807 -4.15436 -5.12155
upperneck 14.5267 -5.4884 7.14964
head 8.57123 -2.12636 2.50268
rclavicle 8.96395e-015 4.33351e-014
rhumerus -12.2375 18.3076 -86.3781
rradius 75.5724
rwrist -10.2718
rhand -12.3924 -12.4029
rfingers 7.12502
rthumb 13.6788 -41.9334
lclavicle 8.96395e-015 4.33351e-014
lhumerus -57.2231 -6.3327 83.4987
lradius 40.6374
lwrist -2.4139
lhand -5.97676 13.5508
lfingers 7.12502
lthumb 19.8547 42.5566
rfemur -5.9428 5.15587 39.5276
rtibia 24.0625
rfoot 709.531 -2.02302
rtoes 20.0025
lfemur -77.699 11.4948 -7.59917
ltibia 54.2297
lfoot 908.486 7.01609
ltoes 0.528138
407
root -1.57948 18.0375 4.22732 850.242 -74.4205 -849.278
lowerback 6.78311 2.13665 9.10742
upperback -0.70293 3.636 4.24471
thorax -4.26211 1.56675 -1.02492
lowerneck -22.4562 -4.20329 -5.20301
upperneck 14.5483 -5.53996 7.16835
head 8.56379 -2.15566 2.51599
rclavicle 8.58501e-015 -4.41302e-014
rhumerus -11.0191 18.4711 -85.905
rradius 76.7765
rwrist -10.2969
rhand -12.4283 -12.2365
rfingers 7.12502
rthumb 13.6443 -41.7693
lclavicle 8.58501e-015 -4.41302e-014
lhumerus -58.6979 -6.1602 82.8409
lradius 40.8393
lwrist -2.18337
lhand -5.89257 13.4678
lfingers 7.12502
lthumb 19.9356 42.4653
rfemur -4.98975 5.06503 39.5111
rtibia 23.5439
rfoot 709.596 -1.82918
rtoes 19.9777
lfemur -80.2476 11.4307 -7.89679
ltibia 53.534
lfoot 908.414 7.02054
ltoes 0.762821
